<?xml version="1.0" encoding="utf-8"?>
<!-- Generator: Adobe Illustrator 24.0.0, SVG Export Plug-In . SVG Version: 6.00 Build 0)  -->
<svg version="1.1" id="Capa_2" xmlns="http://www.w3.org/2000/svg" xmlns:xlink="http://www.w3.org/1999/xlink" x="0px" y="0px"
	 viewBox="0 0 612 612" style="enable-background:new 0 0 612 612;" xml:space="preserve">
<style type="text/css">
	.st0{fill:none;stroke:#000000;stroke-width:15;stroke-linecap:round;stroke-linejoin:round;stroke-miterlimit:10;}
</style>
<line class="st0" x1="286.3" y1="402" x2="376.3" y2="402"/>
<line class="st0" x1="283.7" y1="402" x2="226.3" y2="402"/>
<path class="st0" d="M130.3,402H61v-83.3c0,0,7.3-28,40-30.7l79.3-7.3l46-58c0,0,12-20.1,44.7-21h60.3l31,0.4c0,0,42-6,60,30.7
	L449,278h91.3v72.7c0,0,8.7,47.3-26,48H475"/>
<line class="st0" x1="86.3" y1="380.7" x2="61" y2="380.7"/>
<g>
	<path class="st0" d="M540.3,308.7c0,0-30.7-5.3-30,16c0,0-6.7,23.3,30,16.7"/>
</g>
<g>
	<path class="st0" d="M62.7,325.9c0,0,30.7-5.3,30,16c0,0,6.7,23.3-30,16.7"/>
</g>
<line class="st0" x1="316.3" y1="202.6" x2="316.3" y2="403"/>
<circle class="st0" cx="180.7" cy="405.4" r="45.7"/>
<circle class="st0" cx="426.7" cy="402" r="45.7"/>
</svg>
