<?xml version="1.0" encoding="utf-8"?>
<!-- Generator: Adobe Illustrator 24.0.0, SVG Export Plug-In . SVG Version: 6.00 Build 0)  -->
<svg version="1.1" xmlns="http://www.w3.org/2000/svg" xmlns:xlink="http://www.w3.org/1999/xlink" x="0px" y="0px"
	 viewBox="0 0 612 612" style="enable-background:new 0 0 612 612;" xml:space="preserve">
<style type="text/css">
	.st0{stroke:#000000;stroke-linecap:round;stroke-miterlimit:10;}
	.st1{fill:none;stroke:#000000;stroke-width:30;stroke-miterlimit:10;}
	.st2{fill:none;stroke:#000000;stroke-width:30;stroke-linecap:round;stroke-miterlimit:10;}
</style>
<g id="Capa_3">
	<path class="st0" d="M147,282.7c0,0,13.3-5.3,28,12l16,21.3c0,0,17.3,22,32.7-2.7l16.7-21.3c0,0,15.3-23.3,34,1.3l16.7,23.3
		c0,0,15.3,24,36,0l18-26.7c0,0,17.3-17.3,32.7,0l16.7,25.3c0,0,20,20.7,40-0.7l15.3-24c0,0,15.3-12.2,21.3-8.8
		s-0.7,183.4-162,180.8C309,462.7,152.3,466,147,282.7z"/>
</g>
<g id="Capa_2">
	<ellipse class="st1" cx="309" cy="303.5" rx="169" ry="166.5"/>
	<path class="st2" d="M111,173.3c0,0-88.7,122,0,266.7"/>
	<path class="st2" d="M502.9,172.7c0,0,88.7,122,0,266.7"/>
</g>
</svg>
